<?xml version="1.0" standalone="no"?>
<!DOCTYPE svg PUBLIC "-//W3C//DTD SVG 20010904//EN"
 "http://www.w3.org/TR/2001/REC-SVG-20010904/DTD/svg10.dtd">
<svg version="1.0" xmlns="http://www.w3.org/2000/svg"
 width="4052.000000pt" height="4052.000000pt" viewBox="0 0 4052.000000 4052.000000"
 preserveAspectRatio="xMidYMid meet">
<metadata>
Created by potrace 1.14, written by Peter Selinger 2001-2017
</metadata>
<g transform="translate(0.000000,4052.000000) scale(0.100000,-0.100000)"
fill="#000000" stroke="none">
<path d="M19815 40500 c-3679 -81 -7222 -1146 -10340 -3108 -1062 -669 -2107
-1476 -3045 -2352 -209 -195 -742 -727 -931 -930 -795 -850 -1499 -1740 -2117
-2675 -328 -497 -487 -756 -750 -1220 -1004 -1775 -1743 -3715 -2162 -5676
-17 -79 -35 -162 -40 -184 -20 -89 -111 -583 -144 -785 -261 -1593 -332 -3188
-215 -4810 331 -4598 2236 -8944 5409 -12340 199 -213 707 -722 925 -927 1555
-1462 3386 -2703 5306 -3596 2567 -1194 5298 -1828 8124 -1886 1828 -37 3615
163 5355 599 3200 801 6135 2365 8615 4590 144 129 177 160 380 350 112 105
658 651 780 780 1468 1547 2714 3368 3621 5292 984 2088 1598 4307 1828 6608
79 785 109 1563 94 2425 -29 1764 -300 3554 -794 5255 -898 3085 -2523 5917
-4744 8265 -156 165 -685 692 -845 842 -2039 1908 -4393 3353 -6994 4292
-2328 841 -4812 1245 -7316 1191z"/>
</g>
</svg>
