<?xml version="1.0" standalone="no"?>
<!DOCTYPE svg PUBLIC "-//W3C//DTD SVG 20010904//EN"
 "http://www.w3.org/TR/2001/REC-SVG-20010904/DTD/svg10.dtd">
<svg version="1.0" xmlns="http://www.w3.org/2000/svg"
 width="4052.000000pt" height="4052.000000pt" viewBox="0 0 4052.000000 4052.000000"
 preserveAspectRatio="xMidYMid meet">
<metadata>
Created by potrace 1.14, written by Peter Selinger 2001-2017
</metadata>
<g transform="translate(0.000000,4052.000000) scale(0.100000,-0.100000)"
fill="#000000" stroke="none">
<path d="M4790 40499 c-965 -41 -1894 -361 -2680 -923 -918 -656 -1593 -1607
-1898 -2676 -118 -411 -173 -758 -192 -1205 -13 -299 -13 -30581 0 -30880 14
-336 47 -594 111 -890 389 -1780 1741 -3221 3494 -3724 409 -118 760 -173
1210 -191 310 -13 30550 -13 30860 0 729 29 1359 185 1990 489 524 253 948
555 1361 966 396 395 697 811 948 1312 315 631 484 1297 516 2038 13 299 13
30581 0 30880 -33 766 -206 1432 -544 2090 -683 1331 -1919 2285 -3372 2604
-294 64 -553 97 -889 111 -262 11 -30649 11 -30915 -1z"/>
</g>
</svg>
